<?xml version="1.0"?>
<svg xmlns="http://www.w3.org/2000/svg" xmlns:xlink="http://www.w3.org/1999/xlink" xmlns:svgjs="http://svgjs.com/svgjs" version="1.1" width="512" height="512" x="0" y="0" viewBox="0 0 510 510" style="enable-background:new 0 0 512 512" xml:space="preserve" class=""><g><g xmlns="http://www.w3.org/2000/svg"><path d="m0 0v510h510v-510c-14.57 0-484.523 0-510 0zm270 480h-240v-450h240zm210 0h-180v-450h180z" fill="#ffffff" data-original="#000000" style=""/><path d="m330 60h120v30h-120z" fill="#ffffff" data-original="#000000" style=""/><path d="m330 120h120v30h-120z" fill="#ffffff" data-original="#000000" style=""/><path d="m330 180h120v30h-120z" fill="#ffffff" data-original="#000000" style=""/><path d="m330 240h120v30h-120z" fill="#ffffff" data-original="#000000" style=""/><path d="m330 300h120v30h-120z" fill="#ffffff" data-original="#000000" style=""/><path d="m330 360h120v30h-120z" fill="#ffffff" data-original="#000000" style=""/><path d="m330 420h120v30h-120z" fill="#ffffff" data-original="#000000" style=""/><path d="m127 298.338v61.662h-30v30h90v-30h-30v-61.662c34.678-7.714 57.409-40.01 53.955-74.532l-10.38-103.806h-117.15l-10.381 103.806c-1.944 19.444 4.462 38.906 17.574 53.396 9.701 10.719 22.479 18.043 36.382 21.136zm-24.104-71.548 7.679-76.79h62.851l7.679 76.791c1.119 11.189-2.42 21.942-9.965 30.279-7.547 8.338-17.895 12.93-29.14 12.93s-21.593-4.592-29.139-12.93c-7.545-8.337-11.085-19.09-9.965-30.28z" fill="#ffffff" data-original="#000000" style=""/></g></g></svg>
