<svg id="Layer_1" enable-background="new 0 0 510 510" height="512" viewBox="0 0 510 510" width="512" xmlns="http://www.w3.org/2000/svg"><g><path d="m142 270c11.245 0 21.593-4.592 29.139-12.93 7.545-8.337 11.084-19.091 9.965-30.279l-7.679-76.791h-62.851l-7.679 76.79c-1.119 11.19 2.42 21.943 9.966 30.28 7.546 8.338 17.894 12.93 29.139 12.93z"/><path d="m0 510h270v-510h-270zm73.044-286.194 10.381-103.806h117.149l10.38 103.806c3.453 34.513-19.269 66.816-53.955 74.532v61.662h30v30h-89.999v-30h30v-61.662c-34.678-7.714-57.408-40.009-53.956-74.532z"/><path d="m300 0v510h210v-510zm150 450h-120v-30h120zm0-60h-120v-30h120zm0-60h-120v-30h120zm0-60h-120v-30h120zm0-60h-120v-30h120zm0-60h-120v-30h120zm0-60h-120v-30h120z"/></g></svg>